<svg xmlns="http://www.w3.org/2000/svg" width="150" height="150"><g fill="#FFF"><path d="M144.668 105.209H95.251a1.467 1.467 0 01-1.465-1.466V44.186H82.257v59.558c0 .809-.657 1.466-1.467 1.466H70.01c-.81 0-1.466-.657-1.466-1.466V42.718c0-.81.656-1.465 1.466-1.465h9.313v-16.92H50.887v32.604h6.376c.811 0 1.467.656 1.467 1.465v45.34c0 .809-.656 1.466-1.467 1.466H49.42a1.466 1.466 0 01-1.464-1.466V59.87h-6.379v43.874c0 .809-.657 1.466-1.468 1.466H7.604a1.466 1.466 0 110-2.932h31.038V58.403c0-.809.658-1.465 1.467-1.465h7.847V22.869c0-.811.656-1.468 1.464-1.468h31.37c.81 0 1.467.657 1.467 1.468v18.384h12.994c.811 0 1.467.655 1.467 1.465v59.559h47.95c.812 0 1.469.657 1.469 1.466s-.658 1.466-1.469 1.466m-73.193-2.932h7.848V44.186h-7.848v58.091zm-20.588 0h4.91V59.871h-4.91v42.406zM10.619 131.375c-2.78 0-4.239-1.717-4.379-5.151l2.503-.559c.063 2.23.66 3.349 1.79 3.349.439 0 .763-.143.977-.428.212-.285.319-.668.319-1.151 0-.469-.08-.896-.238-1.288a3.497 3.497 0 00-.552-.956 11.412 11.412 0 00-.895-.92l-2.076-1.925c-.609-.57-1.063-1.162-1.362-1.775-.298-.615-.447-1.384-.447-2.307 0-1.31.359-2.327 1.081-3.054.72-.727 1.708-1.096 2.965-1.109.578-.006 1.089.069 1.533.23.445.158.812.372 1.101.64.288.269.529.602.724 1.002.193.4.336.817.434 1.248.095.431.16.911.199 1.44l-2.457.519a11.818 11.818 0 00-.061-.885 5.042 5.042 0 00-.148-.764 2.054 2.054 0 00-.271-.628 1.19 1.19 0 00-1.1-.492c-.425.027-.75.178-.976.452-.226.275-.337.644-.337 1.105 0 .543.1.988.3 1.338.2.351.513.726.938 1.126l2.056 1.913c.342.332.642.655.896.968.254.312.496.668.728 1.067.232.4.408.842.528 1.325.121.479.182.99.182 1.526 0 1.228-.365 2.226-1.091 2.991-.73.77-1.683 1.153-2.864 1.153M21.524 131.374c-1.625 0-2.79-.472-3.494-1.415-.705-.943-1.057-2.324-1.057-4.143v-6.229c0-.895.079-1.674.237-2.332a4.735 4.735 0 01.767-1.71 3.219 3.219 0 011.413-1.085c.591-.24 1.302-.36 2.133-.36 1.62 0 2.782.465 3.489 1.395.708.93 1.062 2.294 1.062 4.093v6.229c0 .883-.081 1.656-.243 2.325-.162.67-.418 1.25-.772 1.741a3.266 3.266 0 01-1.414 1.115c-.587.251-1.295.376-2.121.376m-.718-2.412c.2.089.439.133.718.133.279 0 .518-.044.714-.133.195-.087.353-.203.471-.347.117-.142.208-.327.276-.559.067-.23.111-.462.134-.693.022-.23.033-.505.033-.823v-7.666c0-.406-.021-.745-.058-1.018a2.686 2.686 0 00-.225-.769c-.11-.24-.277-.42-.499-.54-.223-.118-.505-.178-.848-.178-.342 0-.627.06-.852.178-.225.12-.392.3-.5.54-.108.241-.18.498-.219.769a7.412 7.412 0 00-.056 1.018v7.666c0 .318.011.593.033.823.021.231.066.463.133.693.066.231.158.417.271.559.116.144.272.26.474.347M29.154 131.172v-16.879h2.875v14.75h3.78v2.129zM42.63 131.375c-.705 0-1.318-.09-1.834-.266-.517-.177-.942-.424-1.275-.742a3.433 3.433 0 01-.799-1.228 6.738 6.738 0 01-.419-1.618c-.08-.58-.12-1.254-.12-2.02v-11.209h2.79v11.524c0 .394.011.728.029 1.008.019.277.061.568.125.875.063.305.153.55.27.733.118.183.279.336.486.458.206.122.456.183.748.183s.541-.061.747-.183.365-.275.477-.458c.111-.184.199-.429.266-.733.066-.307.108-.597.125-.872.015-.273.023-.611.023-1.011v-11.524h2.79v11.209c0 .766-.041 1.439-.119 2.02-.08.58-.219 1.12-.419 1.618a3.487 3.487 0 01-.794 1.228c-.331.318-.755.565-1.271.742-.52.176-1.129.266-1.826.266M54.505 131.375c-.68 0-1.279-.092-1.799-.274-.521-.185-.951-.438-1.29-.764a3.737 3.737 0 01-.829-1.212 6.171 6.171 0 01-.448-1.554 12.204 12.204 0 01-.128-1.865v-5.885c0-.732.044-1.383.133-1.949s.238-1.093.447-1.578a3.47 3.47 0 01.824-1.196c.339-.313.768-.556 1.286-.732.517-.177 1.118-.265 1.803-.265.787 0 1.46.111 2.018.336.559.224 1 .553 1.325.987.323.436.559.941.705 1.521.146.581.218 1.258.218 2.031v1.445H56v-1.436c0-.841-.04-1.407-.123-1.7-.166-.57-.568-.875-1.209-.916h-.153c-.241 0-.452.031-.633.092a.992.992 0 00-.442.29 1.824 1.824 0 00-.276.424c-.07.148-.122.343-.158.585-.035.24-.057.462-.066.666s-.015.462-.015.773v7.146c0 .991.117 1.697.348 2.118.232.421.645.631 1.242.631.204 0 .383-.024.539-.076a1.42 1.42 0 00.39-.193.932.932 0 00.267-.336 2.7 2.7 0 00.167-.407c.038-.126.067-.301.085-.524.02-.224.03-.414.034-.569.002-.157.003-.371.003-.643v-1.507h2.771v1.385c0 .632-.041 1.198-.123 1.7-.083.502-.225.974-.424 1.415s-.458.809-.775 1.099c-.318.292-.724.521-1.22.687-.495.167-1.07.25-1.724.25M61.821 114.293h2.837v16.879h-2.837zM72.355 131.374c-1.625 0-2.79-.472-3.493-1.415-.706-.943-1.058-2.324-1.058-4.143v-6.229c0-.895.08-1.674.238-2.332s.414-1.229.767-1.71a3.216 3.216 0 011.414-1.085c.589-.24 1.301-.36 2.131-.36 1.62 0 2.782.465 3.491 1.395.707.93 1.061 2.294 1.061 4.093v6.229c0 .883-.081 1.656-.243 2.325-.162.67-.418 1.25-.771 1.741a3.269 3.269 0 01-1.413 1.115c-.59.251-1.298.376-2.124.376m-.718-2.412c.199.089.439.133.718.133.28 0 .518-.044.715-.133.197-.087.353-.203.471-.347.119-.142.21-.327.275-.559a3.67 3.67 0 00.134-.693 8.45 8.45 0 00.034-.823v-7.666c0-.406-.019-.745-.057-1.018a2.75 2.75 0 00-.224-.769 1.143 1.143 0 00-.5-.54c-.222-.118-.505-.178-.848-.178-.342 0-.625.06-.852.178-.225.12-.392.3-.5.54a2.835 2.835 0 00-.219.769 7.554 7.554 0 00-.057 1.018v7.666c0 .318.012.593.034.823.022.231.066.463.132.693.067.231.158.417.273.559.114.144.271.26.471.347M79.985 131.172v-16.879h1.981l3.866 9.56v-9.56h2.379v16.879h-1.885l-3.903-10.048v10.048zM91.547 131.172v-16.879h6.607v2.17h-3.732v4.845h2.953v2.168h-2.953v5.567h3.781v2.129zM104.813 131.375c-2.78 0-4.24-1.717-4.379-5.151l2.504-.559c.063 2.23.659 3.349 1.79 3.349.438 0 .763-.143.975-.428.214-.285.319-.668.319-1.151 0-.469-.078-.896-.238-1.288a3.574 3.574 0 00-.551-.956 12.195 12.195 0 00-.896-.92l-2.075-1.925c-.608-.57-1.062-1.162-1.361-1.775-.298-.615-.447-1.384-.447-2.307 0-1.31.36-2.327 1.081-3.054.722-.727 1.709-1.096 2.965-1.109.577-.006 1.089.069 1.533.23.444.158.812.372 1.1.64.29.269.53.602.724 1.002.194.4.338.817.433 1.248.096.431.162.911.201 1.44l-2.457.519a11.818 11.818 0 00-.061-.885 5.44 5.44 0 00-.148-.764 2.054 2.054 0 00-.271-.628 1.19 1.19 0 00-1.099-.492c-.426.027-.751.178-.977.452-.225.275-.338.644-.338 1.105 0 .543.1.988.301 1.338.199.351.512.726.937 1.126l2.058 1.913c.343.332.641.655.895.968.254.312.496.668.729 1.067.23.4.406.842.529 1.325.119.479.179.99.179 1.526 0 1.228-.362 2.226-1.089 2.991-.732.77-1.685 1.153-2.866 1.153M117.16 131.172v-16.879h4.541c2.691 0 4.038 1.599 4.038 4.796 0 1.567-.368 2.716-1.104 3.445-.738.729-1.775 1.095-3.115 1.095h-1.484v7.543h-2.876zm2.875-9.701h.923c.814 0 1.362-.172 1.647-.514.286-.344.429-.973.429-1.889 0-.522-.019-.927-.057-1.212s-.127-.544-.268-.777a1.074 1.074 0 00-.623-.484c-.276-.088-.649-.132-1.117-.132h-.935v5.008zM128.245 131.172v-16.879h6.609v2.17h-3.733v4.845h2.952v2.168h-2.952v5.567h3.78v2.129zM141.77 131.375c-.68 0-1.278-.092-1.8-.274-.521-.185-.95-.438-1.29-.764s-.616-.729-.828-1.212a6.089 6.089 0 01-.447-1.554 12.063 12.063 0 01-.13-1.865v-5.885c0-.732.045-1.383.134-1.949s.239-1.093.447-1.578a3.47 3.47 0 01.824-1.196c.34-.313.768-.556 1.285-.732s1.119-.265 1.805-.265c.787 0 1.459.111 2.019.336.559.224.998.553 1.323.987.323.436.558.941.703 1.521.147.581.219 1.258.219 2.031v1.445h-2.77v-1.436c0-.841-.041-1.407-.123-1.7-.166-.57-.568-.875-1.21-.916h-.152c-.241 0-.452.031-.633.092a.99.99 0 00-.443.29 1.82 1.82 0 00-.275.424 2.127 2.127 0 00-.157.585c-.035.24-.057.462-.066.666s-.015.462-.015.773v7.146c0 .991.116 1.697.347 2.118.232.421.646.631 1.243.631.203 0 .383-.024.538-.076.156-.052.285-.116.391-.193a.942.942 0 00.267-.336c.073-.146.129-.281.167-.407s.066-.301.086-.524c.019-.224.029-.414.032-.569.004-.157.005-.371.005-.643v-1.507h2.77v1.385c0 .632-.04 1.198-.123 1.7-.081.502-.223.974-.423 1.415s-.459.809-.775 1.099c-.318.292-.724.521-1.221.687-.497.167-1.071.25-1.724.25"/></g></svg>