<?xml version="1.0" encoding="utf-8"?>
<!-- Generator: Adobe Illustrator 16.0.3, SVG Export Plug-In . SVG Version: 6.00 Build 0)  -->
<!DOCTYPE svg PUBLIC "-//W3C//DTD SVG 1.1//EN" "http://www.w3.org/Graphics/SVG/1.1/DTD/svg11.dtd">
<svg version="1.1" id="Capa_1" xmlns="http://www.w3.org/2000/svg" xmlns:xlink="http://www.w3.org/1999/xlink" x="0px" y="0px"
	 width="150px" height="150px" viewBox="0 0 150 150" enable-background="new 0 0 150 150" xml:space="preserve">
<path style="fill: #fff;" d="M143.333,118.653H94.107c-0.817,0-1.479-0.662-1.479-1.479V57.061H80.991v60.113c0,0.817-0.663,1.479-1.48,1.479H68.628
	c-0.816,0-1.479-0.662-1.479-1.479V55.58c0-0.817,0.663-1.479,1.479-1.479h9.402V37.025H49.329v32.907h6.436
	c0.817,0,1.479,0.663,1.479,1.479v45.763c0,0.817-0.663,1.479-1.479,1.479h-7.916c-0.817,0-1.48-0.662-1.48-1.479V72.892H39.93
	v44.282c0,0.817-0.663,1.479-1.48,1.479H6.293c-0.817,0-1.48-0.662-1.48-1.479s0.663-1.48,1.48-1.48H36.97V71.411
	c0-0.817,0.663-1.479,1.48-1.479h7.918V35.544c0-0.817,0.663-1.48,1.48-1.48h31.662c0.817,0,1.48,0.663,1.48,1.48v18.556h13.116
	c0.817,0,1.48,0.662,1.48,1.479v60.113h47.745c0.817,0,1.479,0.663,1.479,1.48S144.15,118.653,143.333,118.653 M70.109,115.693
	h7.921V57.06h-7.921V115.693z M49.329,115.693h4.955V72.892h-4.955V115.693z"/>
</svg>
