<?xml version="1.0" encoding="utf-8"?>
<!-- Generator: Adobe Illustrator 16.0.3, SVG Export Plug-In . SVG Version: 6.00 Build 0)  -->
<!DOCTYPE svg PUBLIC "-//W3C//DTD SVG 1.1//EN" "http://www.w3.org/Graphics/SVG/1.1/DTD/svg11.dtd">
<svg version="1.1" id="Capa_1" xmlns="http://www.w3.org/2000/svg" xmlns:xlink="http://www.w3.org/1999/xlink" x="0px" y="0px"
	 width="150px" height="150px" viewBox="0 0 150 150" enable-background="new 0 0 150 150" xml:space="preserve">
<g>
	<g>
		<path fill="#FFFFFF" d="M144.668,105.209H95.251c-0.808,0-1.465-0.657-1.465-1.466V44.186H82.257v59.558
			c0,0.809-0.657,1.466-1.467,1.466H70.01c-0.81,0-1.466-0.657-1.466-1.466V42.718c0-0.81,0.656-1.465,1.466-1.465h9.313V24.333
			H50.887v32.604h6.376c0.811,0,1.467,0.656,1.467,1.465v45.34c0,0.809-0.656,1.466-1.467,1.466h-7.843
			c-0.808,0-1.464-0.657-1.464-1.466V59.87h-6.379v43.874c0,0.809-0.657,1.466-1.468,1.466H7.604c-0.811,0-1.467-0.657-1.467-1.466
			s0.656-1.466,1.467-1.466h31.038V58.403c0-0.809,0.658-1.465,1.467-1.465h7.847V22.869c0-0.811,0.656-1.468,1.464-1.468H80.79
			c0.81,0,1.467,0.657,1.467,1.468v18.384h12.994c0.811,0,1.467,0.655,1.467,1.465v59.559h47.95c0.812,0,1.469,0.657,1.469,1.466
			S145.479,105.209,144.668,105.209 M71.475,102.277h7.848V44.186h-7.848V102.277z M50.887,102.277h4.91V59.871h-4.91V102.277z"/>
		<path fill="#FFFFFF" d="M10.619,131.375c-2.78,0-4.239-1.717-4.379-5.151l2.503-0.559c0.063,2.23,0.66,3.349,1.79,3.349
			c0.439,0,0.763-0.143,0.977-0.428c0.212-0.285,0.319-0.668,0.319-1.151c0-0.469-0.08-0.896-0.238-1.288
			c-0.157-0.389-0.342-0.708-0.552-0.956c-0.208-0.248-0.507-0.555-0.895-0.92l-2.076-1.925c-0.609-0.57-1.063-1.162-1.362-1.775
			c-0.298-0.615-0.447-1.384-0.447-2.307c0-1.31,0.359-2.327,1.081-3.054c0.72-0.727,1.708-1.096,2.965-1.109
			c0.578-0.006,1.089,0.069,1.533,0.23c0.445,0.158,0.812,0.372,1.101,0.64c0.288,0.269,0.529,0.602,0.724,1.002
			c0.193,0.4,0.336,0.817,0.434,1.248c0.095,0.431,0.16,0.911,0.199,1.44l-2.457,0.519c-0.012-0.339-0.033-0.635-0.061-0.885
			c-0.028-0.252-0.078-0.506-0.148-0.764c-0.07-0.259-0.161-0.468-0.271-0.628c-0.112-0.156-0.26-0.285-0.448-0.38
			c-0.186-0.095-0.404-0.133-0.652-0.112c-0.425,0.027-0.75,0.178-0.976,0.452c-0.226,0.275-0.337,0.644-0.337,1.105
			c0,0.543,0.1,0.988,0.3,1.338c0.2,0.351,0.513,0.726,0.938,1.126l2.056,1.913c0.342,0.332,0.642,0.655,0.896,0.968
			c0.254,0.312,0.496,0.668,0.728,1.067c0.232,0.4,0.408,0.842,0.528,1.325c0.121,0.479,0.182,0.99,0.182,1.526
			c0,1.228-0.365,2.226-1.091,2.991C12.753,130.992,11.8,131.375,10.619,131.375"/>
		<path fill="#FFFFFF" d="M21.524,131.374c-1.625,0-2.79-0.472-3.494-1.415c-0.705-0.943-1.057-2.324-1.057-4.143v-6.229
			c0-0.895,0.079-1.674,0.237-2.332c0.158-0.658,0.415-1.229,0.767-1.71c0.351-0.481,0.823-0.843,1.413-1.085
			c0.591-0.24,1.302-0.36,2.133-0.36c1.62,0,2.782,0.465,3.489,1.395c0.708,0.93,1.062,2.294,1.062,4.093v6.229
			c0,0.883-0.081,1.656-0.243,2.325c-0.162,0.67-0.418,1.25-0.772,1.741c-0.352,0.492-0.824,0.865-1.414,1.115
			C23.058,131.249,22.35,131.374,21.524,131.374 M20.806,128.962c0.2,0.089,0.439,0.133,0.718,0.133
			c0.279,0,0.518-0.044,0.714-0.133c0.195-0.087,0.353-0.203,0.471-0.347c0.117-0.142,0.208-0.327,0.276-0.559
			c0.067-0.23,0.111-0.462,0.134-0.693c0.022-0.23,0.033-0.505,0.033-0.823v-7.666c0-0.406-0.021-0.745-0.058-1.018
			c-0.037-0.271-0.113-0.527-0.225-0.769c-0.11-0.24-0.277-0.42-0.499-0.54c-0.223-0.118-0.505-0.178-0.848-0.178
			c-0.342,0-0.627,0.06-0.852,0.178c-0.225,0.12-0.392,0.3-0.5,0.54c-0.108,0.241-0.18,0.498-0.219,0.769
			c-0.039,0.272-0.056,0.611-0.056,1.018v7.666c0,0.318,0.011,0.593,0.033,0.823c0.021,0.231,0.066,0.463,0.133,0.693
			c0.066,0.231,0.158,0.417,0.271,0.559C20.448,128.759,20.604,128.875,20.806,128.962"/>
		<polygon fill="#FFFFFF" points="29.154,131.172 29.154,114.293 32.029,114.293 32.029,129.043 35.809,129.043 35.809,131.172 		
			"/>
		<path fill="#FFFFFF" d="M42.63,131.375c-0.705,0-1.318-0.09-1.834-0.266c-0.517-0.177-0.942-0.424-1.275-0.742
			c-0.333-0.319-0.6-0.729-0.799-1.228c-0.201-0.498-0.34-1.038-0.419-1.618c-0.08-0.58-0.12-1.254-0.12-2.02v-11.209h2.79v11.524
			c0,0.394,0.011,0.728,0.029,1.008c0.019,0.277,0.061,0.568,0.125,0.875c0.063,0.305,0.153,0.55,0.27,0.733
			c0.118,0.183,0.279,0.336,0.486,0.458c0.206,0.122,0.456,0.183,0.748,0.183c0.292,0,0.541-0.061,0.747-0.183
			s0.365-0.275,0.477-0.458c0.111-0.184,0.199-0.429,0.266-0.733c0.066-0.307,0.108-0.597,0.125-0.872
			c0.015-0.273,0.023-0.611,0.023-1.011v-11.524h2.79v11.209c0,0.766-0.041,1.439-0.119,2.02c-0.08,0.58-0.219,1.12-0.419,1.618
			c-0.199,0.499-0.465,0.908-0.794,1.228c-0.331,0.318-0.755,0.565-1.271,0.742C43.936,131.285,43.327,131.375,42.63,131.375"/>
		<path fill="#FFFFFF" d="M54.505,131.375c-0.68,0-1.279-0.092-1.799-0.274c-0.521-0.185-0.951-0.438-1.29-0.764
			c-0.34-0.325-0.616-0.729-0.829-1.212c-0.212-0.48-0.362-0.999-0.448-1.554c-0.086-0.552-0.128-1.174-0.128-1.865v-5.885
			c0-0.732,0.044-1.383,0.133-1.949s0.238-1.093,0.447-1.578c0.21-0.485,0.484-0.883,0.824-1.196
			c0.339-0.313,0.768-0.556,1.286-0.732c0.517-0.177,1.118-0.265,1.803-0.265c0.787,0,1.46,0.111,2.018,0.336
			c0.559,0.224,1,0.553,1.325,0.987c0.323,0.436,0.559,0.941,0.705,1.521c0.146,0.581,0.218,1.258,0.218,2.031v1.445H56v-1.436
			c0-0.841-0.04-1.407-0.123-1.7c-0.166-0.57-0.568-0.875-1.209-0.916h-0.153c-0.241,0-0.452,0.031-0.633,0.092
			c-0.181,0.062-0.327,0.157-0.442,0.29c-0.114,0.134-0.207,0.273-0.276,0.424c-0.07,0.148-0.122,0.343-0.158,0.585
			c-0.035,0.24-0.057,0.462-0.066,0.666s-0.015,0.462-0.015,0.773v7.146c0,0.991,0.117,1.697,0.348,2.118
			c0.232,0.421,0.645,0.631,1.242,0.631c0.204,0,0.383-0.024,0.539-0.076c0.155-0.052,0.285-0.116,0.39-0.193
			c0.104-0.078,0.194-0.19,0.267-0.336c0.073-0.146,0.128-0.281,0.167-0.407c0.038-0.126,0.067-0.301,0.085-0.524
			c0.02-0.224,0.03-0.414,0.034-0.569c0.002-0.157,0.003-0.371,0.003-0.643v-1.507h2.771v1.385c0,0.632-0.041,1.198-0.123,1.7
			c-0.083,0.502-0.225,0.974-0.424,1.415s-0.458,0.809-0.775,1.099c-0.318,0.292-0.724,0.521-1.22,0.687
			C55.734,131.292,55.159,131.375,54.505,131.375"/>
		<rect x="61.821" y="114.293" fill="#FFFFFF" width="2.837" height="16.879"/>
		<path fill="#FFFFFF" d="M72.355,131.374c-1.625,0-2.79-0.472-3.493-1.415c-0.706-0.943-1.058-2.324-1.058-4.143v-6.229
			c0-0.895,0.08-1.674,0.238-2.332s0.414-1.229,0.767-1.71c0.351-0.481,0.823-0.843,1.414-1.085c0.589-0.24,1.301-0.36,2.131-0.36
			c1.62,0,2.782,0.465,3.491,1.395c0.707,0.93,1.061,2.294,1.061,4.093v6.229c0,0.883-0.081,1.656-0.243,2.325
			c-0.162,0.67-0.418,1.25-0.771,1.741c-0.352,0.492-0.824,0.865-1.413,1.115C73.889,131.249,73.181,131.374,72.355,131.374
			 M71.637,128.962c0.199,0.089,0.439,0.133,0.718,0.133c0.28,0,0.518-0.044,0.715-0.133c0.197-0.087,0.353-0.203,0.471-0.347
			c0.119-0.142,0.21-0.327,0.275-0.559c0.068-0.23,0.112-0.462,0.134-0.693c0.023-0.23,0.034-0.505,0.034-0.823v-7.666
			c0-0.406-0.019-0.745-0.057-1.018c-0.038-0.271-0.113-0.527-0.224-0.769c-0.112-0.24-0.278-0.42-0.5-0.54
			c-0.222-0.118-0.505-0.178-0.848-0.178c-0.342,0-0.625,0.06-0.852,0.178c-0.225,0.12-0.392,0.3-0.5,0.54
			c-0.108,0.241-0.181,0.498-0.219,0.769c-0.038,0.272-0.057,0.611-0.057,1.018v7.666c0,0.318,0.012,0.593,0.034,0.823
			c0.022,0.231,0.066,0.463,0.132,0.693c0.067,0.231,0.158,0.417,0.273,0.559C71.28,128.759,71.437,128.875,71.637,128.962"/>
		<polygon fill="#FFFFFF" points="79.985,131.172 79.985,114.293 81.966,114.293 85.832,123.853 85.832,114.293 88.211,114.293 
			88.211,131.172 86.326,131.172 82.423,121.124 82.423,131.172 		"/>
		<polygon fill="#FFFFFF" points="91.547,131.172 91.547,114.293 98.154,114.293 98.154,116.463 94.422,116.463 94.422,121.308 
			97.375,121.308 97.375,123.476 94.422,123.476 94.422,129.043 98.203,129.043 98.203,131.172 		"/>
		<path fill="#FFFFFF" d="M104.813,131.375c-2.78,0-4.24-1.717-4.379-5.151l2.504-0.559c0.063,2.23,0.659,3.349,1.79,3.349
			c0.438,0,0.763-0.143,0.975-0.428c0.214-0.285,0.319-0.668,0.319-1.151c0-0.469-0.078-0.896-0.238-1.288
			c-0.158-0.389-0.343-0.708-0.551-0.956c-0.211-0.248-0.509-0.555-0.896-0.92l-2.075-1.925c-0.608-0.57-1.062-1.162-1.361-1.775
			c-0.298-0.615-0.447-1.384-0.447-2.307c0-1.31,0.36-2.327,1.081-3.054c0.722-0.727,1.709-1.096,2.965-1.109
			c0.577-0.006,1.089,0.069,1.533,0.23c0.444,0.158,0.812,0.372,1.1,0.64c0.29,0.269,0.53,0.602,0.724,1.002
			c0.194,0.4,0.338,0.817,0.433,1.248c0.096,0.431,0.162,0.911,0.201,1.44l-2.457,0.519c-0.013-0.339-0.032-0.635-0.061-0.885
			c-0.029-0.252-0.08-0.506-0.148-0.764c-0.07-0.259-0.161-0.468-0.271-0.628c-0.111-0.156-0.261-0.285-0.448-0.38
			c-0.187-0.095-0.404-0.133-0.651-0.112c-0.426,0.027-0.751,0.178-0.977,0.452c-0.225,0.275-0.338,0.644-0.338,1.105
			c0,0.543,0.1,0.988,0.301,1.338c0.199,0.351,0.512,0.726,0.937,1.126l2.058,1.913c0.343,0.332,0.641,0.655,0.895,0.968
			c0.254,0.312,0.496,0.668,0.729,1.067c0.23,0.4,0.406,0.842,0.529,1.325c0.119,0.479,0.179,0.99,0.179,1.526
			c0,1.228-0.362,2.226-1.089,2.991C106.947,130.992,105.994,131.375,104.813,131.375"/>
		<path fill="#FFFFFF" d="M117.16,131.172v-16.879h4.541c2.691,0,4.038,1.599,4.038,4.796c0,1.567-0.368,2.716-1.104,3.445
			c-0.738,0.729-1.775,1.095-3.115,1.095h-1.484v7.543H117.16z M120.035,121.471h0.923c0.814,0,1.362-0.172,1.647-0.514
			c0.286-0.344,0.429-0.973,0.429-1.889c0-0.522-0.019-0.927-0.057-1.212s-0.127-0.544-0.268-0.777
			c-0.14-0.235-0.346-0.396-0.623-0.484c-0.276-0.088-0.649-0.132-1.117-0.132h-0.935V121.471z"/>
		<polygon fill="#FFFFFF" points="128.245,131.172 128.245,114.293 134.854,114.293 134.854,116.463 131.121,116.463 
			131.121,121.308 134.073,121.308 134.073,123.476 131.121,123.476 131.121,129.043 134.901,129.043 134.901,131.172 		"/>
		<path fill="#FFFFFF" d="M141.77,131.375c-0.68,0-1.278-0.092-1.8-0.274c-0.521-0.185-0.95-0.438-1.29-0.764
			s-0.616-0.729-0.828-1.212c-0.213-0.48-0.362-0.999-0.447-1.554c-0.087-0.552-0.13-1.174-0.13-1.865v-5.885
			c0-0.732,0.045-1.383,0.134-1.949s0.239-1.093,0.447-1.578c0.21-0.485,0.484-0.883,0.824-1.196
			c0.34-0.313,0.768-0.556,1.285-0.732s1.119-0.265,1.805-0.265c0.787,0,1.459,0.111,2.019,0.336
			c0.559,0.224,0.998,0.553,1.323,0.987c0.323,0.436,0.558,0.941,0.703,1.521c0.147,0.581,0.219,1.258,0.219,2.031v1.445h-2.77
			v-1.436c0-0.841-0.041-1.407-0.123-1.7c-0.166-0.57-0.568-0.875-1.21-0.916h-0.152c-0.241,0-0.452,0.031-0.633,0.092
			c-0.181,0.062-0.329,0.157-0.443,0.29c-0.114,0.134-0.206,0.273-0.275,0.424c-0.069,0.148-0.122,0.343-0.157,0.585
			c-0.035,0.24-0.057,0.462-0.066,0.666s-0.015,0.462-0.015,0.773v7.146c0,0.991,0.116,1.697,0.347,2.118
			c0.232,0.421,0.646,0.631,1.243,0.631c0.203,0,0.383-0.024,0.538-0.076c0.156-0.052,0.285-0.116,0.391-0.193
			c0.104-0.078,0.193-0.19,0.267-0.336c0.073-0.146,0.129-0.281,0.167-0.407s0.066-0.301,0.086-0.524
			c0.019-0.224,0.029-0.414,0.032-0.569c0.004-0.157,0.005-0.371,0.005-0.643v-1.507h2.77v1.385c0,0.632-0.04,1.198-0.123,1.7
			c-0.081,0.502-0.223,0.974-0.423,1.415s-0.459,0.809-0.775,1.099c-0.318,0.292-0.724,0.521-1.221,0.687
			C142.997,131.292,142.423,131.375,141.77,131.375"/>
	</g>
</g>
</svg>
